<svg width="228" height="376" viewBox="0 0 228 376" fill="none" xmlns="http://www.w3.org/2000/svg">
<path d="M45 28C45 12.536 57.536 0 73 0H200C215.464 0 228 12.536 228 28V299C228 314.464 215.464 327 200 327H73C57.536 327 45 314.464 45 299V28Z" fill="#E8D0FF"/>
<path d="M28 26.0312H177.531C189.681 26.0315 199.531 35.8811 199.531 48.0312V347.95C199.531 360.1 189.681 369.95 177.531 369.95H28C15.8497 369.95 6 360.1 6 347.95V48.0312C6.00001 35.881 15.8498 26.0312 28 26.0312Z" stroke="black" stroke-width="12"/>
<path d="M75.1948 46.0903H130.337C132.003 46.0905 133.353 47.4406 133.353 49.106C133.353 50.7713 132.003 52.1214 130.337 52.1216H75.1948C73.5294 52.1216 72.1792 50.7714 72.1792 49.106C72.1792 47.4405 73.5294 46.0903 75.1948 46.0903Z" fill="black" stroke="black" stroke-width="6"/>
<mask id="path-4-inside-1_725_92" fill="white">
<path d="M64.166 354.394C64.166 353.01 65.2882 351.888 66.6725 351.888H139.862C141.246 351.888 142.368 353.01 142.368 354.394C142.368 355.779 141.246 356.901 139.862 356.901H66.6725C65.2882 356.901 64.166 355.779 64.166 354.394Z"/>
</mask>
<path d="M66.6725 351.888V357.888H139.862V351.888V345.888H66.6725V351.888ZM139.862 356.901V350.901H66.6725V356.901V362.901H139.862V356.901ZM66.6725 356.901V350.901C68.6019 350.901 70.166 352.465 70.166 354.394H64.166H58.166C58.166 359.092 61.9745 362.901 66.6725 362.901V356.901ZM142.368 354.394H136.368C136.368 352.465 137.932 350.901 139.862 350.901V356.901V362.901C144.56 362.901 148.368 359.092 148.368 354.394H142.368ZM139.862 351.888V357.888C137.932 357.888 136.368 356.324 136.368 354.394H142.368H148.368C148.368 349.696 144.56 345.888 139.862 345.888V351.888ZM66.6725 351.888V345.888C61.9745 345.888 58.166 349.696 58.166 354.394H64.166H70.166C70.166 356.324 68.6019 357.888 66.6725 357.888V351.888Z" fill="black" mask="url(#path-4-inside-1_725_92)"/>
</svg>
