<svg xmlns="http://www.w3.org/2000/svg" width="64" height="64" viewBox="-8 -8 80 80" fill="none">
  <!-- Simple composite LearnLoop icon (cards + infinity), derived from learnLoopIcon.icon assets -->
  <rect x="8" y="18" width="38" height="46" rx="10" transform="rotate(-16 8 18)" fill="#2EC3F9"/>
  <rect x="12" y="14" width="38" height="46" rx="10" transform="rotate(-6 12 14)" fill="#9363EC"/>
  <rect x="18" y="10" width="38" height="46" rx="10" transform="rotate(6 18 10)" fill="#F573B6"/>
  <path
    d="M16 33.5C16 41.6 21.5 47 29.5 47c4.1 0 7.6-1.6 11-4.9l3.5-3.5 3.5 3.5c3.4 3.3 6.9 4.9 11 4.9C63.5 47 69 41.6 69 33.5S63.5 20 55.5 20c-4.1 0-7.6 1.6-11 4.9L41 28.4l-3.5-3.5C34.1 21.6 30.6 20 26.5 20 18.5 20 13 25.4 13 33.5Zm8 0c0-3.5 2.2-5.8 5.5-5.8 1.7 0 3.4.8 5.2 2.4l3.2 3.4-3.2 3.4c-1.8 1.6-3.5 2.4-5.2 2.4-3.3 0-5.5-2.3-5.5-5.8Zm23 0 3.2-3.4c1.8-1.6 3.5-2.4 5.2-2.4 3.3 0 5.5 2.3 5.5 5.8s-2.2 5.8-5.5 5.8c-1.7 0-3.4-.8-5.2-2.4L47 33.5Z"
    fill="#ffffff"
    transform="translate(-6 -5) scale(0.9)"
  />
</svg>

