<svg width="306" height="150" viewBox="0 0 306 150" fill="none" xmlns="http://www.w3.org/2000/svg">
<path d="M0 74.9853C0 119.8 30.0446 149.971 74.4803 149.971C96.4457 149.971 116.013 141.008 134.822 122.451L153 104.651L171.179 122.451C189.988 141.008 209.555 149.971 231.52 149.971C275.956 149.971 306 119.8 306 74.9853C306 30.1708 275.956 0 231.52 0C209.555 0 189.988 8.96289 171.179 27.5198L153 45.3194L134.822 27.5198C116.013 8.96289 96.4457 0 74.4803 0C30.0446 0 0 30.1708 0 74.9853ZM42.6683 74.9853C42.6683 55.4183 55.1659 42.6684 74.4803 42.6684C84.4533 42.6684 94.2996 47.5917 105.03 57.9432L122.703 74.9853L105.03 92.0275C94.2996 102.379 84.4533 107.302 74.4803 107.302C55.1659 107.302 42.6683 94.5523 42.6683 74.9853ZM183.298 74.9853L200.971 57.9432C211.701 47.5917 221.548 42.6684 231.52 42.6684C250.834 42.6684 263.331 55.4183 263.331 74.9853C263.331 94.5523 250.834 107.302 231.52 107.302C221.548 107.302 211.701 102.379 200.971 92.0275L183.298 74.9853Z" fill="white"/>
</svg>
